<svg width="111" height="84" viewBox="0 0 111 84" fill="none" xmlns="http://www.w3.org/2000/svg">
<path fill-rule="evenodd" clip-rule="evenodd" d="M47.3479 33.5515C46.1957 33.6251 45.0341 33.5951 43.881 33.5584C43.7674 33.5547 43.4957 33.5019 43.4265 33.5698C43.3469 33.648 43.3638 34.0787 43.3506 34.1854C43.2511 34.9936 43.1513 35.8018 43.0518 36.61C43.006 36.9811 42.9602 37.3522 42.9145 37.7233C42.9015 37.8288 42.7723 38.285 42.834 38.3765C42.9461 38.543 43.7495 38.5811 43.9612 38.6218L46.4824 39.1075C46.7199 39.1532 47.3258 39.164 47.4359 39.3515C47.5057 39.4704 47.4631 39.7927 47.4714 39.9277L47.5399 41.0418C47.6297 42.5008 47.7196 43.9599 47.8093 45.4189C49.5936 45.2755 51.378 45.1321 53.1622 44.9886C53.5964 44.9537 54.0306 44.9189 54.4647 44.884C54.5681 44.8756 54.7847 44.8974 54.8692 44.8403C55.0534 44.7155 55.2105 44.1816 55.3099 43.9898C55.5633 43.5008 55.8167 43.0118 56.0702 42.5228C56.3144 42.0516 56.5586 41.5803 56.8028 41.1091C56.8654 40.9885 57.0214 40.7872 57.0176 40.6553C57.0131 40.5067 56.7914 40.2406 56.7222 40.1136C56.5192 39.7412 56.3164 39.3689 56.1133 38.9966C55.1085 37.1529 54.1037 35.3093 53.0988 33.4657C53.0478 33.3723 52.9341 33.0325 52.8345 32.9809C52.641 32.8807 51.964 33.0822 51.7555 33.1061C50.29 33.2733 48.8205 33.4576 47.3479 33.5515Z" fill="#FF5678"/>
<path fill-rule="evenodd" clip-rule="evenodd" d="M30.3516 30.3844C30.7077 30.8071 31.0639 31.2297 31.4202 31.6523C32.3647 30.4865 33.3093 29.3207 34.2539 28.1549C33.7803 27.9433 33.3068 27.7316 32.8334 27.52C32.4131 27.3323 32.4667 27.4215 32.2009 27.7938C31.5845 28.6574 30.968 29.5209 30.3516 30.3844Z" fill="white"/>
<path fill-rule="evenodd" clip-rule="evenodd" d="M48.567 57.8846C48.5654 58.4989 48.5641 59.1133 48.5625 59.7275C50.4414 59.635 52.3204 59.5425 54.1992 59.4499C54.1139 59.1922 54.0285 58.9345 53.9432 58.6769C53.8765 58.4755 53.7922 57.8671 53.6301 57.7321C53.453 57.5845 52.6744 57.7367 52.4366 57.7453C51.1467 57.7917 49.8567 57.8382 48.567 57.8846Z" fill="white"/>
<path fill-rule="evenodd" clip-rule="evenodd" d="M44.0909 11.3818C41.8959 12.7685 39.7009 14.1553 37.5059 15.5419C37.9905 16.1087 38.475 16.6755 38.9596 17.2423C39.0757 17.3781 39.0963 17.464 39.2291 17.4508C39.3835 17.4355 39.6435 17.193 39.7721 17.1128C41.3282 16.1443 42.8841 15.1757 44.4401 14.2073C44.9109 13.9142 45.3817 13.6212 45.8525 13.3281C45.2653 12.6794 44.678 12.0306 44.0909 11.3818Z" fill="white"/>
<path fill-rule="evenodd" clip-rule="evenodd" d="M95.0898 33.0554C95.0105 32.4108 94.6855 31.7556 94.4477 31.1585C94.1675 30.4551 93.8723 29.7575 93.5701 29.0633C93.3787 28.6238 93.3093 28.7318 92.8089 28.7515C92.2241 28.7743 91.6393 28.7972 91.0547 28.8201C91.5049 30.4547 91.9551 32.0892 92.4053 33.7237C92.4833 34.0066 92.6093 35.0674 92.8548 35.2107C92.9399 35.2603 93.2336 35.1964 93.33 35.1929C93.6059 35.1825 93.8817 35.1722 94.1575 35.1618C94.5325 35.1478 94.9073 35.1337 95.2822 35.1197C95.2299 34.4309 95.1742 33.7412 95.0898 33.0554Z" fill="white"/>
<path fill-rule="evenodd" clip-rule="evenodd" d="M57.9537 74.4429C56.9477 74.1887 55.8532 74.4295 54.8394 74.4366C54.2423 74.4408 53.6463 74.401 53.0494 74.4318C52.8495 74.4421 51.9348 74.4155 51.9036 74.5358C51.8797 74.6281 52.0616 74.8608 52.132 74.8991C52.3296 75.0068 52.4684 74.8684 52.6677 74.8171C53.2078 74.6778 53.8394 74.7637 54.3943 74.7373C54.9749 74.7096 55.5553 74.675 56.1359 74.6484C56.7144 74.6217 57.4523 74.7417 57.9537 74.4429ZM8.66372 22.295C8.58652 22.1182 8.5548 21.8375 8.37747 21.7268C8.21321 21.6241 7.86899 21.699 7.67916 21.6964C7.2755 21.6909 6.39907 21.7066 6.13536 22.074C5.81476 22.5207 6.75794 22.8392 7.07249 22.8307C7.61904 22.8159 8.1163 22.3961 8.66372 22.295ZM18.7117 16.6879C18.7532 16.5748 18.6072 16.5 18.5017 16.464C18.2333 16.3723 18.0568 16.5248 17.8206 16.6395C17.2242 16.9293 16.5757 17.1208 15.9484 17.3302C15.4021 17.5124 14.8954 17.7678 14.3598 17.973C13.98 18.1185 13.1786 18.0902 12.9599 18.4572C12.5281 19.1823 13.6591 18.6385 13.8584 18.5681C14.4304 18.3665 15.0391 18.2422 15.5997 18.0117C16.1392 17.7899 16.6893 17.5643 17.2233 17.3242C17.4669 17.2145 17.7091 17.1215 17.9575 17.0258C18.1899 16.9363 18.4644 16.7116 18.7117 16.6879ZM35.0333 29.2549C34.8908 29.1675 34.3067 28.6799 34.1105 28.7442C33.9572 28.7945 33.7858 29.3547 33.6902 29.5019C33.2119 30.2384 32.696 30.9445 32.1831 31.6569C32.4107 31.7793 32.6383 31.9017 32.866 32.0241C33.3301 30.9242 34.225 30.1012 35.0333 29.2549ZM43.8895 33.1859C44.6221 33.1876 45.3478 33.0958 46.0795 33.106C46.8994 33.1174 47.7051 33.1396 48.5241 33.0726C49.3302 33.0067 50.1331 33.0035 50.9391 32.9544C51.1925 32.9391 52.6044 32.8313 51.7773 32.4276C51.4991 32.2918 51.1645 32.461 50.8623 32.522C50.5122 32.5927 50.1588 32.6192 49.8048 32.6618C49.4675 32.7024 49.1093 32.8146 48.7691 32.8063C48.4122 32.7976 48.1442 32.7338 47.7854 32.7854C47.0416 32.8925 46.3011 32.8326 45.5577 32.7636C45.0451 32.716 43.9198 32.4278 43.8895 33.1859ZM63.8249 74.8983C64.2965 74.518 65.0421 74.6828 65.6023 74.5615C66.221 74.4276 65.7338 73.772 65.4966 73.423C65.2494 73.0589 64.877 72.3316 64.4613 72.8702C64.0271 73.433 63.9758 74.2265 63.8249 74.8983ZM48.9835 58.3772C48.9678 58.7189 48.7986 59.0706 49.154 59.1879C49.4951 59.3005 50.0807 59.1294 50.4342 59.0989C50.895 59.059 51.3483 58.983 51.8077 58.9356C52.0128 58.9144 52.2188 58.8987 52.425 58.9176C52.5669 58.9305 52.9092 59.0847 53.0361 59.0209C53.192 58.9425 53.2676 58.5197 53.1402 58.3566C53.0022 58.1799 52.1685 58.3551 51.8702 58.3777C50.8984 58.4514 49.9512 58.3337 48.9835 58.3772ZM48.924 57.2806C49.3715 57.0964 49.903 57.1826 50.3741 57.1801C50.9284 57.1773 51.4763 57.2074 52.0292 57.2435C52.2739 57.2594 52.9877 57.4408 53.193 57.2841C53.3009 57.2019 53.3397 56.4964 53.2482 56.3883C53.0989 56.2116 52.6302 56.4243 52.4382 56.4529C51.9239 56.5293 51.3992 56.5273 50.8804 56.5225C50.3948 56.5181 49.9077 56.4966 49.4224 56.4955C48.8474 56.4941 48.9252 56.7879 48.924 57.2806ZM33.5332 28.3584C33.3504 28.2524 32.7505 27.7655 32.5264 27.8394C32.3357 27.9024 32.1332 28.4835 32.0194 28.6661C31.8024 29.014 31.5732 29.3552 31.3484 29.6981C31.2047 29.9174 30.8214 30.3136 30.8869 30.61C30.9218 30.7678 31.2409 31.0404 31.402 30.9925C31.5684 30.9432 31.8422 30.3246 31.9345 30.2026C32.434 29.5428 33.0616 29.0464 33.5332 28.3584ZM91.7084 29.0729C92.3487 30.3278 92.431 31.7468 92.7779 33.0937C92.8587 33.4071 92.9831 33.7165 93.0517 34.0318C93.0898 34.2075 93.0195 34.5085 93.1178 34.658C93.3641 35.0324 94.503 34.9135 94.7488 34.5839C94.8931 34.3904 94.781 34.1896 94.7196 33.9886C94.6366 33.7172 94.6764 33.4809 94.6282 33.2099C94.532 32.667 94.0428 32.119 93.8106 31.6178C93.5571 31.0704 93.4405 30.4118 93.0773 29.9228C92.8342 29.5956 92.1523 28.9203 91.7084 29.0729ZM49.9609 78.0256C50.8176 77.9129 52.1651 77.6582 52.1202 76.5069C52.0756 75.3625 50.5752 75.1593 49.74 75.0589C49.4952 75.0295 49.4686 75.0154 49.2201 75.1638C49.0493 75.2658 48.8793 75.3747 48.72 75.4936C48.4098 75.7252 48.0586 76.0405 47.9924 76.4446C47.8244 77.4706 49.2091 77.9345 49.9609 78.0256ZM45.064 13.0151C45.4527 13.0563 44.9357 12.6785 44.8377 12.6328C44.5403 12.494 44.2098 12.5192 43.8941 12.5719C43.1301 12.6996 42.4539 13.3411 41.801 13.7376C41.1098 14.1575 40.4275 14.6322 39.7066 14.9987C39.377 15.1664 39.1045 15.3086 38.8307 15.5586C38.6911 15.6861 38.6427 15.7746 38.4551 15.7745C38.3511 15.7745 38.1191 15.5313 38.0083 15.672C37.6991 16.0647 39.257 16.1917 39.4196 16.1651C40.2318 16.0322 40.9364 15.7241 41.6334 15.3061C42.345 14.8795 43.1007 14.5331 43.8158 14.1179C44.1249 13.9383 44.3896 13.7002 44.6716 13.4869C44.7119 13.4564 44.7849 13.3534 44.8257 13.3143C44.8913 13.3335 44.9461 13.3165 44.9902 13.2633C45.0132 13.18 45.0378 13.0973 45.064 13.0151ZM60.777 74.4535C59.9869 74.7339 58.6954 74.9523 58.3248 75.879C57.9049 76.9289 59.7921 77.6774 60.5327 77.7343C61.3108 77.7941 62.6935 77.4792 62.8019 76.5118C62.8642 75.9549 62.4228 75.5995 62.0102 75.3217C61.5886 75.0377 60.9867 74.9768 60.777 74.4535ZM10.2255 15.9841C9.66702 16.0482 9.28747 16.1033 8.84262 16.4657C8.4735 16.7666 8.16939 17.0704 8.01899 17.5344C7.67125 18.6068 8.5307 19.5276 9.63472 19.4027C9.75642 19.3889 9.87529 19.3439 9.99885 19.3563C10.1124 19.3677 10.1917 19.4492 10.2876 19.4655C10.5138 19.5039 10.5576 19.4643 10.7431 19.2883C11.1216 18.9292 11.5015 18.5347 11.7111 18.0502C12.216 16.8833 11.4568 16.0051 10.2255 15.9841ZM22.922 13.7492C22.9763 12.5415 21.1378 12.343 20.2901 12.4349C19.3276 12.5392 17.7485 13.5164 18.115 14.7154C18.4377 15.7707 20.2579 15.6903 21.0446 15.4757C21.2129 15.4299 21.4744 15.3302 21.6401 15.3639C21.8888 15.4143 21.9009 15.6191 22.1354 15.4338C22.2827 15.3172 22.4158 14.9779 22.5198 14.8107C22.7271 14.4776 22.8343 14.1304 22.922 13.7492ZM48.762 63.3457C48.7366 63.6042 48.6378 63.9367 48.9162 64.0598C49.0882 64.1358 49.5655 64.0525 49.7383 64.0586C50.4596 64.0843 51.1999 64.027 51.9166 64.0842C52.1286 64.1012 52.7621 64.3163 52.9507 64.1721C53.1351 64.0311 52.9912 63.5901 52.9789 63.3927C52.9287 62.5872 53.0366 61.8042 53.0713 61.0031C53.0806 60.788 53.1694 60.2653 53.0044 60.1059C52.8036 59.9119 52.358 60.0242 52.1186 60.0484C51.3719 60.124 50.6037 60.2347 49.8531 60.2364C49.6471 60.2368 49.1909 60.0906 49.0122 60.1677C48.7377 60.286 48.8023 60.6991 48.7872 60.9629C48.7413 61.758 48.7108 62.5498 48.762 63.3457ZM31.9745 27.2858C30.9955 26.5606 29.9806 25.8728 29.0016 25.1676C28.653 24.9166 28.3939 24.5581 28.0672 24.3131C27.8624 24.1592 27.7999 24.0923 27.5199 24.2408C27.1963 24.4125 26.8955 24.6821 26.5969 24.8951C26.3462 25.0739 26.0943 25.2513 25.8433 25.4294C25.6106 25.5944 25.5327 25.6319 25.6976 25.906C25.9876 26.3881 26.59 26.8233 26.9838 27.2199C27.9557 28.1986 28.905 29.2111 29.9969 30.0565C30.3723 28.9615 31.1489 28.071 31.9745 27.2858ZM42.9493 10.3821C41.2497 9.71058 41.1208 7.43682 40.5264 5.98748C40.3424 6.97966 40.8306 8.59217 40.0062 9.37135C39.4992 9.85049 39.2054 9.17429 38.9332 8.80624C38.5186 8.24581 38.0736 7.71 37.6778 7.1353C37.7994 7.82861 38.1476 8.60672 38.0825 9.31176C38.0313 9.86525 37.6776 10.6234 37.1626 9.99578C36.809 9.56471 36.3564 9.16149 35.944 8.77917C35.4483 8.31957 34.8828 8.02265 34.3439 7.63066C34.5526 8.6675 34.9503 9.58787 35.5367 10.4653C35.8375 10.9156 36.1668 11.348 36.4507 11.8094C36.6827 12.1865 36.7923 12.6556 37.0998 12.9759C37.3871 13.2752 37.8095 13.5142 38.1534 13.7441C38.6433 14.0714 38.7607 13.9783 39.2111 13.6672C40.0829 13.0651 41.0295 12.5831 41.907 11.9886C41.7446 11.7739 41.4852 11.5618 41.4937 11.2694C41.5005 11.0328 41.6817 10.8174 41.9241 10.8457C42.114 10.8679 42.2019 11.0669 42.4133 10.9998C42.592 10.9429 42.8363 10.5162 42.9493 10.3821ZM101.472 28.4895C100.685 28.5824 99.9495 28.8631 99.1423 28.8119C98.8157 28.7912 98.5718 28.8514 98.4283 28.5236C98.3137 28.2616 98.431 27.8636 98.071 27.7922C97.8043 27.7395 97.4741 27.9873 97.2768 28.1275C96.9225 28.3794 96.6085 28.6031 96.2073 28.7811C95.496 29.0967 94.774 29.3709 93.9965 29.4054C94.1847 29.9766 94.3827 30.5487 94.6432 31.0915C94.8928 31.6119 95.1385 32.0546 95.2128 32.6342C95.2445 32.8823 95.2445 33.1527 95.488 33.2617C95.7269 33.3688 96.1527 33.2806 96.4113 33.2852C97.0035 33.2958 97.596 33.3097 98.1882 33.311C98.6396 33.3119 99.0884 33.4195 99.5279 33.4132C100.074 33.4053 100.692 33.1679 101.225 33.0552C102.235 32.8416 103.648 32.7091 104.452 32.0205C103.707 31.9033 102.949 31.9831 102.217 32.1435C101.882 32.2171 101.114 32.5998 100.89 32.2166C100.622 31.7601 101.145 31.1299 101.515 30.9178C101.931 30.6783 102.553 30.7042 102.847 30.2726C102.292 30.3194 101.708 30.34 101.172 30.5031C100.761 30.6281 100.23 30.9841 100.068 30.3675C99.8043 29.3685 100.785 28.8947 101.472 28.4895ZM42.6947 37.0425C42.834 35.72 43.0893 34.3835 43.112 33.0521C43.1216 32.4769 42.4717 32.5798 42.0168 32.4164C41.3556 32.1788 40.7075 31.8977 40.0583 31.6297C39.4111 31.3625 38.7604 31.1049 38.111 30.8432C37.5214 30.6058 36.9555 30.2468 36.3611 30.0357C36.0375 29.9208 36.0124 30.033 35.8246 30.3299C35.642 30.6187 35.4501 30.9015 35.2515 31.1795C34.8344 31.7637 34.3877 32.326 33.9313 32.8797C35.3048 33.7065 36.7384 34.4707 38.1556 35.2201C39.6019 35.9849 41.1751 36.4479 42.6947 37.0425ZM72.0337 32.0256C72.7602 32.0274 73.4676 31.9229 74.191 31.9007C74.906 31.8788 75.5974 31.9102 76.3066 31.9287C76.9876 31.9465 77.6554 32.0847 78.3346 32.1168C78.4998 32.1246 78.6715 32.1239 78.8357 32.1423C79.001 32.1608 79.0988 32.2221 79.2522 32.2481C79.6289 32.312 79.9958 32.2215 80.3759 32.2419C81.7774 32.3167 83.1583 32.6046 84.5603 32.6776C86.0014 32.7527 87.4081 32.8645 88.8426 33.0374C89.6008 33.1287 90.3603 33.1824 91.122 33.2358C91.2781 33.2468 91.6126 33.3451 91.6982 33.1669C91.8021 32.9505 91.4496 32.2112 91.3846 31.9821C91.3003 31.6844 91.231 31.3799 91.1177 31.0912C91.0513 30.9225 90.9115 30.3716 90.777 30.2645C90.5894 30.1152 90.3092 30.2587 90.0902 30.2903C89.6465 30.3544 89.1955 30.3926 88.7494 30.4366C88.0889 30.5019 87.428 30.6579 86.768 30.6777C86.0231 30.7 85.2818 30.6681 84.5378 30.6403C83.0474 30.5845 81.5211 30.6133 80.0385 30.4611C78.3252 30.2852 76.6041 30.2136 74.8867 30.0845C74.4797 30.0538 74.0715 30.0461 73.664 30.0216C73.3726 30.0042 72.7776 29.7996 72.5053 29.8944C72.2285 29.9909 72.281 30.3184 72.2497 30.5729C72.1899 31.0586 72.1125 31.5428 72.0337 32.0256ZM54.1939 45.5029C53.1601 45.6619 52.1459 45.7241 51.1007 45.7541C50.6398 45.7673 50.1817 45.7895 49.7226 45.8356C49.3388 45.8742 49.1235 45.891 49.1093 46.3113C49.0469 48.1548 48.9466 49.9784 48.8899 51.8226C48.8579 52.8638 48.8948 53.9063 48.8912 54.9479C48.8897 55.3433 48.8087 55.6283 49.2432 55.6744C49.7711 55.7305 50.325 55.6569 50.856 55.6619C51.3449 55.6666 51.8339 55.6786 52.3226 55.6892C52.6365 55.696 53.2185 55.8522 53.3239 55.4721C53.3575 55.3505 53.2969 55.1371 53.3001 55.0027C53.3059 54.7525 53.3368 54.4999 53.3519 54.2499C53.3864 53.6762 53.4116 53.102 53.4465 52.5284C53.589 50.178 53.9722 47.847 54.1939 45.5029ZM42.3565 16.2434C43.0384 16.7666 43.814 17.1265 44.5429 17.584C44.8924 17.8035 45.2297 18.0388 45.5722 18.2688C45.9244 18.5054 46.3337 18.6487 46.6665 18.9115C47.3105 19.4203 48.1074 19.7445 48.815 20.1859C49.534 20.6345 50.2505 21.0838 50.9858 21.5053C51.3112 21.6918 51.6671 21.8039 52.0007 21.9721C52.4007 22.1739 52.7636 22.4382 53.1691 22.6309C54.037 23.0437 54.9038 23.457 55.7681 23.8778C57.4647 24.7037 59.2037 25.4668 60.9358 26.2152C61.3049 26.3747 61.6929 26.4447 62.082 26.5389C62.2656 26.5834 62.4986 26.6064 62.6642 26.6947C62.7157 26.7223 62.7702 26.7262 62.8111 26.7724C62.8893 26.861 62.8229 26.9851 62.871 27.0511C63.1407 27.4203 63.8898 26.3828 64.064 26.1314C64.333 25.7429 64.2238 25.68 63.8085 25.5189C63.3895 25.3563 62.9666 25.203 62.5521 25.0293C61.7887 24.7093 61.0078 24.3473 60.2785 23.9553C59.5198 23.5475 58.7298 23.2108 57.9792 22.7855C57.1373 22.3085 56.302 21.8218 55.4505 21.3617C54.014 20.5854 52.6943 19.6067 51.2987 18.7641C50.528 18.2989 49.8036 17.7454 49.0581 17.2332C48.3304 16.7333 47.6408 16.1753 46.8977 15.7082C46.4889 15.4514 46.0639 15.2376 45.6819 14.9409C45.3964 14.7192 45.1115 14.4917 44.7537 14.6778C44.367 14.8789 44.002 15.217 43.6264 15.4505C43.2026 15.7141 42.7797 15.979 42.3565 16.2434ZM74.0128 24.895C73.7916 24.7792 72.9788 24.4699 73.3604 24.0911C73.6319 23.8216 74.2738 24.1797 74.537 24.2689C74.5315 23.8962 74.5321 23.6391 74.4121 23.2838C74.2916 22.9267 74.3251 22.6566 74.6187 22.386C74.753 22.2622 75.2403 22.1554 75.2968 21.993C75.3847 21.7408 74.9475 21.8208 74.7984 21.7855C74.01 21.5991 74.0577 20.7726 74.0381 20.1399C74.015 19.396 73.8409 18.6807 73.266 18.1971C73.0063 17.9788 72.9126 17.9784 72.5927 18.1218C72.4748 18.1747 72.3686 18.2597 72.2385 18.2831C72.0546 18.3162 71.9313 18.1964 71.7675 18.2045C71.5139 18.217 71.255 18.6366 71.008 18.7707C70.6882 18.9444 70.3734 18.8925 70.0575 19.0168C69.7764 19.1273 69.5047 19.427 69.2426 19.5865C68.8856 19.8036 68.9669 20.0167 68.9897 20.4433C69.0087 20.7992 68.9973 21.0327 68.6473 21.1647C68.5345 21.2073 68.336 21.1881 68.24 21.2566C68.0981 21.3578 68.175 21.4338 68.1293 21.6029C68.0134 22.0308 67.768 21.7697 67.4547 21.7125C67.0732 21.6429 66.6529 21.9121 66.8522 22.3216C66.9235 22.4682 67.0766 22.6016 67.2298 22.6473C67.4111 22.7011 67.6372 22.5528 67.8044 22.6197C68.2307 22.7906 67.89 23.1953 67.9103 23.4711C68.169 23.3307 68.257 22.9283 68.5245 23.3744C68.7177 23.6968 68.6408 24.1866 68.5928 24.5386C68.4814 25.3531 68.2318 26.3508 67.702 27.0042C67.6257 27.0983 67.5117 27.275 67.3683 27.2527C67.249 27.2343 67.2347 27.0795 67.1316 27.0399C66.9103 26.9547 66.5714 27.0809 66.4867 27.2857C66.3436 27.632 66.3585 28.14 66.3472 28.5065C66.3341 28.9282 66.2846 29.4054 66.3869 29.8192C66.5616 30.5259 67.2191 30.7719 67.8585 30.928C68.2149 31.0149 68.6056 31.1163 68.9663 30.9942C69.3598 30.8609 69.6302 30.5034 69.9077 30.2149C70.1163 29.998 70.5209 29.7511 70.5481 29.4374C70.5608 29.2905 70.4564 29.0881 70.4326 28.9377C70.3948 28.699 70.3842 28.4578 70.3905 28.2163C70.4021 27.7726 70.5263 27.3216 70.4884 26.8779C70.4495 26.4241 70.1121 26.3915 69.9284 26.0419C69.8189 25.8333 69.7932 25.5085 70.0595 25.4376C70.2142 25.3963 70.5039 25.5138 70.6715 25.5257C70.9272 25.5439 71.1862 25.5479 71.4426 25.5504C71.9151 25.5552 72.2711 25.531 72.6988 25.3252C73.139 25.1136 73.5321 24.9816 74.0128 24.895ZM63.0577 74.6174C63.0755 74.2305 63.1294 73.8436 63.2492 73.4744C63.3511 73.1604 63.5696 72.8856 63.6064 72.5613C63.6832 71.8844 63.4588 71.2485 62.8063 71.0043C62.1737 70.7675 61.4883 70.7713 60.8277 70.8157C60.4442 70.8415 60.1192 70.7102 59.7429 70.7276C59.3466 70.7459 58.997 70.6916 58.6036 70.6498C57.8728 70.5722 57.2501 70.2504 56.5404 70.1143C56.1931 70.0477 56.073 70.1959 55.8605 70.4404C55.6264 70.7095 55.3628 70.9359 55.0661 71.1337C54.6101 71.4376 53.7944 71.996 53.7509 71.0537C53.7144 70.2629 54.5065 69.677 54.9955 69.1648C54.5 68.9543 54.5424 68.1724 53.9667 68.487C53.7169 68.6236 53.5197 68.8255 53.2888 68.9894C53.0946 69.1272 52.6489 69.511 52.3934 69.4811C52.0329 69.439 51.9943 68.9265 52.0484 68.6422C52.1465 68.1258 52.6862 67.8285 53.0693 67.5253C53.3008 67.342 53.6471 67.1977 53.8439 66.9825C54.053 66.7537 54.0065 66.4973 53.9994 66.2099C53.9963 66.0791 54.0944 65.5862 54.0411 65.4733C53.959 65.2991 53.6747 65.3452 53.4722 65.3272C53.0963 65.2936 52.7232 65.2277 52.3487 65.1922C52.0551 65.1644 51.7731 65.2307 51.4793 65.2414C50.7373 65.2686 49.9866 65.23 49.2436 65.2279C49.1088 65.2275 48.5439 65.1309 48.4501 65.2476C48.3691 65.3481 48.4462 65.8141 48.4458 65.9345C48.4432 66.6823 48.4458 67.429 48.4681 68.1765C48.5119 69.6513 48.4626 71.1656 48.1598 72.6152C48.105 72.8779 47.9323 73.1689 48.1985 73.2982C48.4032 73.3977 48.9498 73.2431 49.1731 73.2285C49.8972 73.1811 50.6292 73.2278 51.3494 73.1752C52.6032 73.0835 53.9001 73.1678 55.1789 73.1975C56.8803 73.2371 58.5722 73.4211 60.273 73.4647C61.0123 73.4836 61.7643 73.3487 62.4939 73.371C62.7808 73.3798 62.862 73.4524 62.8782 73.7597C62.8973 74.1251 62.7385 74.3211 63.0577 74.6174ZM27.357 22.4632C26.7035 21.3592 26.0875 20.2335 25.4347 19.1292C25.1397 18.6306 24.8086 18.1565 24.4794 17.6803C24.3107 17.4363 24.1243 17.1898 23.9954 16.9211C23.8772 16.6751 23.8421 16.3923 23.703 16.1561C23.4399 16.7378 22.8751 17.0569 22.284 17.2651C21.8247 17.4269 21.3767 17.6586 20.8975 17.7584C19.6442 18.0199 18.4044 18.5832 17.1746 18.9916C14.5632 19.8585 11.7719 20.3346 9.2577 21.461C10.1156 22.3103 9.84904 24.1209 11.2805 24.3948C11.85 24.5038 12.4447 24.3285 12.9898 24.1784C13.6781 23.9887 14.3668 23.8006 15.0558 23.613C15.8033 23.4092 16.5583 23.2512 17.3119 23.0733C17.6904 22.984 18.0713 22.9221 18.4506 22.8416C18.7665 22.7746 18.7703 22.7089 18.9358 22.4113C19.2158 21.9082 19.7351 21.3936 20.1743 22.0573C20.3531 22.3277 20.3152 22.667 20.4719 22.9349C20.6058 23.1637 20.8921 23.2824 21.0933 23.4371C21.233 23.0428 21.3998 22.5087 21.7084 22.2058C22.0451 21.8754 22.3796 22.1412 22.5008 22.5296C22.6464 22.9963 22.4318 23.5643 22.3379 24.0235C22.292 24.2479 22.205 24.5059 22.2577 24.7361C22.3277 25.042 22.5943 25.3574 22.7531 25.6228C24.2373 24.5165 25.7536 23.3868 27.357 22.4632ZM56.374 41.0494C55.9394 40.4602 55.4799 39.9382 55.1537 39.2782C54.805 38.5728 54.5231 37.813 54.1511 37.1256C53.7818 36.4429 53.4419 35.7473 53.1047 35.0464C52.8694 34.5572 52.6016 33.3827 51.9276 33.4121C51.591 33.4268 51.2476 33.5481 50.909 33.5813C50.5121 33.6204 50.1134 33.6181 49.717 33.6666C48.8473 33.773 48.0007 33.9632 47.1229 34.0147C46.3687 34.059 45.6047 34.0816 44.8495 34.0488C44.6438 34.0399 44.1081 33.8796 43.9173 33.9714C43.6949 34.0785 43.7692 34.4962 43.7505 34.71C43.6795 35.514 43.5709 36.3187 43.4487 37.1162C43.4278 37.2522 43.2176 37.9318 43.3117 38.0467C43.4567 38.224 44.0801 38.1055 44.2834 38.1212C45.0855 38.1829 45.8736 38.3661 46.6725 38.4548C47.0777 38.4997 47.4836 38.5101 47.891 38.5115C48.2869 38.5129 48.8644 38.4037 49.2399 38.5393C49.4814 38.6265 49.6184 38.8317 49.5404 39.0931C49.4545 39.3812 49.175 39.4456 48.9159 39.4995C48.7259 39.539 48.1746 39.517 48.055 39.6917C47.9255 39.8808 48.1523 40.2373 48.2163 40.4166C48.3389 40.7606 48.2693 40.9082 48.2602 41.2445C48.2506 41.5985 48.4555 41.91 48.4282 42.2679C48.4016 42.6178 48.387 42.8972 48.4211 43.2539C48.451 43.5673 48.4301 43.9105 48.4742 44.215C48.576 44.9195 50.0994 44.4933 50.5721 44.4828C51.5494 44.4609 52.5304 44.619 53.5039 44.5722C53.7904 44.5584 54.4544 44.6104 54.6564 44.3672C54.8611 44.1209 54.8936 43.5588 55.0257 43.254C55.3704 42.4575 55.8842 41.7593 56.374 41.0494ZM65.0752 25.3678C65.0039 26.1853 64.9643 26.8149 64.4748 27.5028C63.9521 28.2374 63.3511 28.1715 62.5258 28.2523C61.7852 28.3248 61.204 28.5696 60.609 29.0075C59.9094 29.5225 59.1546 29.9501 58.409 30.3934C56.9905 31.2367 55.2987 31.4699 53.6879 31.7205C53.2829 31.7836 52.5353 31.9649 53.0119 32.4449C53.5241 32.961 53.8111 33.7225 54.1553 34.3681C54.9445 35.8484 55.5494 37.4385 56.4495 38.8563C56.8132 39.4291 57.2483 40.1202 57.8064 40.5246C58.3363 40.9084 59.3999 40.1956 59.9392 39.9599C60.6403 39.6535 61.3759 39.4209 62.0363 39.0428C62.6523 38.6901 63.2793 38.3859 63.9268 38.0955C64.5625 37.8103 65.1782 37.5265 65.8442 37.3184C66.6277 37.0734 67.4556 36.9866 68.2515 36.7732C69.068 36.5544 69.7124 36.3225 70.3723 35.7813C70.6789 35.5299 71.0525 35.2784 71.1761 34.881C71.3025 34.4745 71.2094 33.956 71.1902 33.5392C71.1701 33.1034 71.1024 32.6572 71.1113 32.2213C71.1203 31.782 71.3357 31.4372 71.4659 31.0289C71.6712 30.3846 71.9049 29.2166 71.2546 28.7827C71.2087 29.471 70.966 30.0886 70.7387 30.7342C70.5197 31.3561 70.1601 31.7364 69.6225 32.099C69.4181 32.237 69.1968 32.4291 68.9547 32.4917C68.6979 32.5582 68.3386 32.5241 68.0717 32.527C67.4713 32.5333 66.8208 32.376 66.3584 31.9713C65.4223 31.152 65.2181 29.6835 65.3084 28.5187C65.3606 27.8487 65.4709 27.1738 65.778 26.5693C65.8836 26.3615 66.0936 26.1397 65.9764 25.8963C65.8537 25.6415 65.3045 25.4872 65.0752 25.3678ZM46.6069 39.6424C45.5028 39.4983 44.3531 39.381 43.2808 39.0694C42.8905 38.956 42.4199 38.8125 42.4158 38.3445C42.4144 38.2009 42.522 37.9415 42.4601 37.8064C42.3967 37.668 42.0013 37.6587 41.8184 37.6223C39.6915 37.2005 37.7159 36.376 35.8173 35.3436C33.8969 34.2992 32.1231 33.067 30.3111 31.85C28.5432 30.6627 27.0744 29.2127 25.6049 27.6878C25.4008 27.476 25.1913 27.2695 24.9805 27.0643C24.8267 26.9146 24.6131 26.6095 24.4109 26.5282C24.0474 26.3821 23.5393 26.9357 23.2179 27.1005C22.7999 27.3149 22.3013 27.3473 22.0254 26.8955C21.8432 26.597 22.0126 26.5425 22.0387 26.2617C22.0601 26.0308 21.9021 25.8999 21.7631 25.7392C21.656 25.9922 21.5134 26.4552 21.1486 26.3976C20.8206 26.346 20.7846 25.8941 20.7613 25.6363C20.7341 25.3359 20.8277 24.9542 20.6244 24.7111C20.4644 24.5197 20.1519 24.3799 19.9471 24.5533C19.5353 24.9019 19.8024 25.9402 19.2211 26.199C18.4015 26.5638 18.4814 24.899 18.4641 24.5663C16.6291 24.7692 14.9045 25.5707 13.0675 25.833C12.3199 25.9398 11.4564 25.9047 10.8039 25.4779C10.204 25.0856 9.58094 24.2224 9.32446 23.56C8.7091 24.0161 8.06574 24.3658 7.27559 24.1623C6.47237 23.9554 5.76576 23.5098 5.47063 22.7025C5.17432 21.8921 5.26001 21.275 5.9997 20.8177C6.30235 20.6305 6.54166 20.5388 6.87476 20.4484C7.24358 20.3484 7.71078 20.2759 8.05901 20.1174C7.69995 19.5928 7.2915 19.0789 7.12832 18.452C6.94425 17.7451 7.03609 16.9497 7.32156 16.2812C7.83756 15.073 9.28805 14.2646 10.5946 14.5407C11.7348 14.7816 12.5417 15.7687 12.8655 16.8483C13.0127 17.3392 12.8834 17.6428 13.4839 17.3772C14.1657 17.0756 14.7624 16.6318 15.4666 16.3657C16.0776 16.1347 16.7439 15.9407 17.31 15.6091C17.603 15.4375 17.5892 15.4227 17.4697 15.1078C17.3214 14.7167 17.2297 14.3526 17.2628 13.9276C17.3574 12.7107 18.3646 11.848 19.4425 11.4477C20.6644 10.9937 22.1796 11.173 23.0952 12.154C23.5401 12.6306 23.8437 13.2569 23.8826 13.9127C23.8999 14.2034 23.7266 14.6453 23.8232 14.9133C23.9074 15.1465 24.3055 15.3253 24.4591 15.5483C24.7027 15.9022 24.8156 16.3257 25.0573 16.6857C25.267 16.9973 25.4794 17.3065 25.6808 17.6237C26.1701 18.3939 26.6289 19.1831 27.0288 20.0037C27.2118 20.3791 27.3836 20.7598 27.5512 21.1423C27.6664 21.4047 27.7614 21.8839 27.9685 22.0929C28.1776 22.3041 28.4895 22.2365 28.669 22.5039C28.8953 22.8406 28.6804 23.1383 28.5011 23.4316C29.8643 23.8309 30.7014 24.9852 31.7922 25.8311C32.8935 26.6849 34.1023 27.4243 35.2861 28.1564C36.5184 28.9185 37.7282 29.6448 39.0698 30.1986C40.3199 30.7147 41.5283 31.323 42.775 31.8455C42.9497 31.9188 43.0858 32.0159 43.2587 31.9022C43.4185 31.7968 43.4506 31.4573 43.6177 31.3197C44.041 30.9711 45.0367 31.1646 45.5405 31.1567C46.2671 31.1453 47.0042 31.1043 47.7302 31.1418C47.9759 31.1544 48.2135 31.2524 48.4543 31.22C48.8233 31.1704 49.1679 31.0949 49.5519 31.0794C49.8717 31.0664 50.1907 31.0427 50.5109 31.0542C50.6628 31.0597 50.9196 31.1248 51.0557 31.0214C51.2255 30.8928 51.1232 30.5838 51.2392 30.3965C51.3144 30.2752 51.4632 30.242 51.536 30.1462C51.5266 30.1584 51.6519 29.9423 51.6172 29.9698C51.841 29.7932 52.467 29.7398 52.7315 29.8027C52.8078 29.8209 52.8203 29.9494 52.9164 29.9497C53.0121 29.95 53.0196 29.8533 53.0872 29.8301C53.1574 29.806 53.1762 29.7088 53.2701 29.694C53.3739 29.6776 53.5069 29.7944 53.6193 29.8009C53.7459 29.8082 53.8667 29.7242 53.9845 29.6915C54.1412 29.6481 54.2619 29.68 54.3923 29.6645C54.6301 29.6363 54.8858 29.6095 55.1328 29.5806C55.4922 29.5386 55.8422 29.4264 56.1928 29.3411C56.3464 29.3037 56.5 29.2601 56.6585 29.2481C56.8415 29.2342 57.0796 29.3203 57.2523 29.2796C57.4 29.2448 57.2797 29.192 57.4077 29.1477C57.5461 29.0997 57.6957 29.0865 57.8361 29.038C58.1585 28.9264 58.4559 28.7409 58.7456 28.5642C59.4202 28.1524 60.0238 27.6392 60.6907 27.2164C60.5385 26.9948 59.9716 26.9573 59.7318 26.8789C59.4017 26.771 59.0779 26.6447 58.7551 26.5173C58.0211 26.2275 57.2926 25.9238 56.5643 25.6203C55.1827 25.0447 53.7932 24.4894 52.4728 23.7832C51.2325 23.1198 49.9078 22.6029 48.6779 21.9158C48.0522 21.5664 47.4258 21.1984 46.8174 20.8193C46.2508 20.4662 45.641 20.2254 45.054 19.9025C43.9072 19.2716 42.8539 18.4867 41.7028 17.8692C41.4309 17.7235 41.129 17.4147 40.8356 17.3354C40.5834 17.2672 40.3276 17.4079 40.0997 17.5066C39.8583 17.6111 39.6317 17.7827 39.3608 17.7885C39.0625 17.795 38.721 17.6343 38.4395 17.5369C37.9164 17.3559 37.462 16.8543 37.2717 16.332C37.1788 16.0766 37.1358 15.7928 37.1014 15.5242C37.0607 15.2057 37.1683 14.8313 37.0907 14.5285C36.9431 13.9524 36.2615 13.4115 35.8804 12.9983C35.4071 12.4853 34.9969 11.9111 34.6233 11.3225C33.7882 10.0067 33.2088 8.446 33.6743 6.8973C33.7453 6.66125 33.8718 6.27121 34.0807 6.1141C34.3707 5.89583 34.4948 6.15055 34.7456 6.27707C35.0572 6.43428 35.3527 6.52583 35.6448 6.73941C35.9988 6.99823 36.29 7.31391 36.6164 7.6034C36.618 6.93491 36.514 6.34889 36.6583 5.67942C36.7323 5.3358 36.898 4.62099 37.3352 4.55973C37.7887 4.49613 38.1138 5.31801 38.3112 5.61787C38.6781 6.17507 39.0881 6.69788 39.4964 7.2248C39.5494 6.40731 39.4408 4.46389 40.4686 4.14234C41.3895 3.85412 41.8656 6.33589 42.0886 6.89124C42.2966 7.40936 42.5888 7.92123 42.9049 8.38152C43.236 8.86378 43.597 8.61806 44.1102 8.64073C44.5846 8.66173 44.798 8.98992 44.7927 9.45518C44.7861 10.0439 44.3183 10.4738 43.9946 10.918C44.6951 11.2566 45.6021 11.6971 46.0205 12.3944C46.1133 12.5489 46.1771 12.7262 46.1829 12.9085C46.1883 13.0888 46.0235 13.4188 46.1091 13.5854C46.1716 13.7073 46.3828 13.7514 46.4953 13.8178C46.7279 13.955 46.9344 14.1326 47.1642 14.2748C48.6705 15.2073 50.0868 16.3215 51.5399 17.3061C52.8521 18.195 54.242 18.9869 55.5691 19.8753C57.2567 21.005 59.0311 21.9661 60.8375 22.8947C61.2541 23.109 61.6405 23.3469 62.0405 23.5868C62.4508 23.8328 62.9405 23.999 63.3785 24.1982C63.6855 24.3377 64.0202 24.6033 64.3424 24.6902C64.7257 24.7937 64.8871 24.3871 65.3337 24.4925C65.7191 24.5835 66.1392 24.6237 66.3707 24.9706C66.5736 25.2747 66.5547 25.74 66.8814 25.9366C67.2603 26.1644 67.3665 25.9201 67.4541 25.6037C67.5537 25.2436 67.835 24.8319 67.4897 24.5727C67.1636 24.3279 66.7014 24.3009 66.3198 24.2103C66.1264 24.1645 65.8699 23.9971 65.6857 23.982C65.4557 23.963 65.4018 24.1774 65.2064 24.1777C65.1024 24.1778 65.011 24.0772 64.9119 24.0453C64.8896 24.0381 64.8309 24.12 64.804 24.1125C64.7071 24.0854 64.6993 24.053 64.6049 24.0142C64.2682 23.876 63.8231 23.658 63.9247 23.2378C63.9792 23.0124 64.3485 22.6498 64.0907 22.4431C63.8485 22.2486 63.5233 22.654 63.3898 22.2483C63.295 21.9602 63.5262 21.8829 63.2322 21.6458C63.016 21.4714 62.8169 21.424 62.9365 21.1042C63.0134 20.8983 63.4138 20.5851 63.299 20.3368C63.1365 19.9853 62.5183 20.3407 62.578 19.7057C62.6205 19.2509 63.1923 18.9226 63.1961 18.4751C63.1989 18.1548 62.8951 18.1571 62.8162 17.949C62.7382 17.7433 62.8095 17.7441 62.9234 17.5997C63.0079 17.4924 63.0628 17.4567 63.126 17.3303C63.2028 17.1766 63.3354 16.9776 63.2855 16.7988C63.2407 16.6381 63.0526 16.5425 63.0053 16.3645C62.8269 15.6938 64.2437 14.17 64.6046 15.0934C64.8726 14.7834 65.2239 14.1343 65.6975 14.1863C65.9838 14.2178 65.8614 14.2994 65.9609 14.4649C66.033 14.5849 66.2331 14.6459 66.2898 14.7757C66.402 14.4271 66.2829 13.7811 66.595 13.5253C66.8991 13.276 67.0902 13.7147 67.2195 13.9587C67.3027 13.7285 67.3562 13.2963 67.6433 13.2137C67.9504 13.1254 68.1421 13.5097 68.2917 13.7054C68.4528 13.4764 68.755 12.8014 69.103 12.8837C69.3641 12.9454 69.4933 13.3812 69.6153 13.5824C69.901 13.3948 70.3511 12.943 70.7209 12.9908C71.081 13.0372 71.0493 13.3749 71.4705 13.2367C71.7759 13.1365 72.0934 12.8702 72.4176 12.8503C72.7594 12.8293 72.9402 13.0689 73.3197 13.0107C73.7226 12.9491 73.7842 12.8553 74.0468 13.1842C74.1765 13.3466 74.1422 13.4179 74.3671 13.4519C74.5574 13.4807 74.724 13.3549 74.9235 13.4342C75.0711 13.4927 75.1742 13.6294 75.2359 13.7699C75.3089 13.9358 75.2244 14.2233 75.2972 14.3539C75.4374 14.605 75.9671 14.3834 76.205 14.5578C76.5258 14.7931 76.2237 15.1504 76.3945 15.4112C76.5316 15.6206 76.918 15.5672 77.0718 15.8498C77.2112 16.1057 77.1785 16.4439 77.0168 16.6811C76.9489 16.7807 76.758 16.8633 76.7133 16.9535C76.621 17.1395 76.6984 17.1178 76.752 17.3079C76.8547 17.6716 76.7725 17.8088 76.4923 18.0575C76.3302 18.2014 76.2963 18.1601 76.2855 18.3788C76.2772 18.5475 76.4208 18.7039 76.3941 18.8928C76.3508 19.1996 76.049 19.3923 75.9582 19.694C75.8411 20.0821 75.5214 20.2945 75.2804 20.614C75.5653 20.7859 75.9397 20.9284 76.0779 21.251C76.2288 21.6029 76.2009 22.1038 76.0939 22.4608C75.9913 22.803 75.7718 23.0214 75.5606 23.2929C75.3035 23.6235 75.3254 23.8856 75.3095 24.2892C75.2759 25.1422 74.9099 25.9169 74.0732 26.1878C73.7413 26.2953 73.4416 26.4534 73.1048 26.5536C72.693 26.6763 72.3918 26.6862 71.9646 26.662C71.6974 26.647 71.3848 26.5893 71.2918 26.8723C71.2453 27.0137 71.2623 27.5644 71.3257 27.69C71.4342 27.9052 71.7418 27.8767 71.9271 28.0627C72.2613 28.3982 72.1668 28.6842 72.7308 28.692C74.5579 28.7175 76.3794 28.5764 78.2065 28.7087C79.1075 28.774 79.9893 28.9297 80.894 28.9755C81.8895 29.0258 82.8878 29.0427 83.8826 29.1031C84.8218 29.1602 85.7406 29.2832 86.6847 29.2345C87.5664 29.1891 88.4132 29.1286 89.2913 29.0312C89.5917 28.9979 90.0571 29.0458 90.2693 28.8161C90.387 28.6888 90.4141 28.4704 90.5315 28.3302C90.6399 28.2007 90.787 28.107 90.9201 28.006C91.2429 27.7611 91.5471 27.5408 91.9729 27.5489C92.3459 27.556 92.6434 27.8255 92.9475 28.0236C93.3003 28.2537 93.4465 28.3594 93.8648 28.2702C94.282 28.1814 94.6645 28.0167 95.0713 27.8955C95.9297 27.64 96.734 27.2725 97.5159 26.8366C97.901 26.6218 98.1724 26.4775 98.6159 26.6068C99.0706 26.7393 99.1999 26.8697 99.2054 27.3419C99.207 27.4918 99.1499 27.7582 99.3222 27.8448C99.4472 27.9076 99.7225 27.7323 99.8287 27.6862C100.298 27.4827 100.758 27.2707 101.249 27.1221C101.696 26.9864 102.149 26.866 102.599 26.7365C102.975 26.628 103.476 26.471 103.851 26.6728C104.797 27.1827 103.404 28.4781 103.043 28.9091C103.494 28.801 104.461 28.8627 104.699 29.3466C104.979 29.9194 104.417 30.4873 104.099 30.9036C104.544 31.1062 105.442 30.932 105.567 31.5697C105.672 32.105 105.115 32.6442 104.753 32.9574C103.813 33.7679 102.356 34.3355 101.115 34.3461C100.801 34.3489 100.494 34.2875 100.181 34.2725C99.9516 34.2617 99.7449 34.3409 99.5223 34.3412C99.2085 34.3416 98.9302 34.28 98.6066 34.3242C98.2336 34.3752 97.8636 34.4379 97.4889 34.4801C97.1413 34.5191 96.7934 34.5548 96.4446 34.582C96.2148 34.6 95.868 34.5492 95.6545 34.6264C95.3781 34.7263 95.4587 34.8261 95.4362 35.092C95.4085 35.4184 95.2432 35.7135 95.0027 35.9312C94.1289 36.722 92.641 36.5321 92.2019 35.3713C92.095 35.089 92.2369 34.9414 92.1966 34.6869C92.1561 34.4308 91.9179 34.4395 91.6846 34.4222C90.9746 34.3697 90.2554 34.3648 89.5423 34.3156C88.1621 34.2206 86.7404 34.0269 85.3608 34.0598C83.921 34.0941 82.4721 34.0075 81.0338 33.9293C80.3627 33.8929 79.6674 33.6575 79.0069 33.7083C78.3053 33.7621 77.5601 33.611 76.8548 33.5377C75.2781 33.3738 73.5181 33.3263 72.0611 32.6712C72.1763 34.2507 72.3677 35.8542 71.086 37.0322C70.5489 37.5258 69.8741 38.0912 69.17 38.3017C68.2623 38.5729 67.3922 38.7978 66.4686 38.9991C64.7511 39.3734 63.0446 40.2691 61.495 41.0738C60.7662 41.4523 59.9109 41.5998 59.1208 41.812C58.7444 41.9131 58.3205 42.0464 57.9258 42.0323C57.5369 42.0184 57.2669 41.7541 56.9236 41.5963C56.5951 42.3701 56.1517 43.0786 55.8211 43.8423C55.6571 44.2212 55.5279 44.6241 55.3369 44.9906C55.1913 45.2699 54.9556 45.4201 54.9334 45.744C54.8792 46.5303 55.023 47.3505 54.9845 48.1457C54.9424 49.013 54.8076 49.8932 54.7282 50.7615C54.5564 52.638 54.6366 54.5274 54.4972 56.4065C54.3698 58.123 54.4494 59.8264 54.259 61.5445C54.2062 62.0214 54.1475 62.4978 54.1093 62.9763C54.0844 63.2902 53.9105 64.013 54.0742 64.2944C54.1457 64.4174 54.3177 64.4306 54.4327 64.4922C54.6121 64.5885 54.7752 64.7356 54.9093 64.8888C55.1924 65.2122 55.26 65.5973 55.3245 66.0093C55.6909 65.8123 57.2268 64.8009 56.9968 65.9086C56.9255 66.2521 56.6139 66.4372 56.368 66.6564C56.1878 66.817 56.0159 66.9874 55.8241 67.1346C55.6948 67.2339 55.4208 67.357 55.3583 67.5192C55.2469 67.8091 55.8227 68.223 56.0944 68.2197C56.4761 68.2153 56.9525 67.6426 57.276 67.46C58.1344 66.9752 58.0569 68.0222 57.7332 68.4772C57.489 68.8206 57.6956 68.7942 58.0314 68.8639C58.5564 68.9729 59.0412 69.066 59.5749 69.1325C60.5948 69.2598 61.5984 69.0955 62.6105 69.3309C63.6182 69.5655 64.2173 70.1942 64.3641 71.2311C64.4417 71.7788 64.5145 71.5039 64.9744 71.6323C65.3992 71.751 65.639 72.2367 65.8835 72.566C66.3716 73.2232 67.284 74.8785 66.5365 75.6532C66.2191 75.9822 65.4484 75.8987 65.0306 75.9549C64.7618 75.9909 64.4383 76.1163 64.167 76.0514C63.9092 75.9897 63.7377 75.7591 63.5517 75.5899C63.5492 76.6299 63.543 77.5333 62.7189 78.2841C62.054 78.8902 61.1647 79.1683 60.2731 79.107C59.3993 79.047 58.502 78.6914 57.9482 77.989C57.656 77.6184 57.448 77.1637 57.3727 76.6967C57.3379 76.4816 57.3279 76.2554 57.3616 76.0392C57.3816 75.9108 57.5038 75.6779 57.4262 75.5538C57.2902 75.3366 56.624 75.5171 56.4041 75.5393C55.8236 75.5979 55.2448 75.6711 54.6665 75.7486C54.1885 75.8127 53.7008 75.8806 53.2211 75.79C52.8089 75.7122 52.6513 75.6677 52.7255 76.1555C52.8746 77.137 52.6262 78.0075 51.8192 78.6109C51.0116 79.2147 50.2662 79.3343 49.2786 79.1754C48.3762 79.0301 47.5507 78.178 47.2879 77.3302C46.938 76.202 47.2987 75.1741 48.1414 74.4038C47.6302 74.1449 47.2913 73.992 47.111 73.3939C46.9226 72.7688 47.0987 72.1114 47.1878 71.4845C47.3792 70.1384 47.3047 68.8281 47.3704 67.4776C47.3993 66.8817 47.5224 66.2751 47.5243 65.6808C47.5254 65.342 47.5067 65.3541 47.1579 65.3514C46.9415 65.3497 46.7121 65.3648 46.6211 65.1127C46.4011 64.5045 47.433 64.5558 47.6925 64.3136C48.002 64.025 47.7883 62.8861 47.7792 62.4853C47.7498 61.1834 47.8785 59.9118 47.9037 58.6134C47.9152 58.0269 47.9509 57.4102 47.9024 56.8257C47.883 56.5924 47.7496 56.4039 47.7585 56.1718C47.7698 55.8745 47.8271 55.5967 47.8118 55.2874C47.6772 52.5665 47.6476 49.7954 47.9967 47.0926C48.0176 46.9307 48.132 46.5663 48.0708 46.4037C47.9781 46.1575 47.6838 46.2448 47.4782 46.1546C46.9029 45.9025 46.7607 45.5022 46.7293 44.9161C46.7108 44.5688 46.6923 44.2213 46.6743 43.8739C46.665 43.6955 46.6559 43.517 46.6463 43.3385C46.6349 43.1316 46.72 42.899 46.7152 42.7253C46.7135 42.6695 46.6895 42.5862 46.689 42.5532C46.6224 42.5205 46.5965 42.4724 46.611 42.4089C46.608 42.3492 46.6176 42.291 46.6396 42.2344C46.6431 42.2682 46.5996 42.0428 46.5958 42.0628C46.6019 42.0319 46.7147 41.8491 46.7034 41.8269C46.6507 41.7234 46.539 41.8492 46.5017 41.6563C46.4706 41.4944 46.576 41.304 46.5407 41.1145C46.4461 40.6084 46.5353 40.1545 46.6069 39.6424Z" fill="white"/>
<path fill-rule="evenodd" clip-rule="evenodd" d="M18.6073 47.5869C24.9984 47.6017 31.4044 47.7593 37.7794 47.948C38.4819 47.9688 39.1867 48.0282 39.8896 48.0583C40.0118 48.0635 40.414 48.0123 40.5046 48.1434C40.652 48.3569 40.3145 48.5742 40.1555 48.6716C39.6083 49.0066 38.884 48.9481 38.2638 48.9693C37.4082 48.9982 36.5522 49.0015 35.6962 48.9896C32.722 48.9483 29.7465 48.7223 26.7787 48.5464C24.9505 48.4381 23.1166 48.3719 21.2859 48.318C20.3822 48.2914 19.4779 48.2767 18.5743 48.2469C18.3303 48.2389 17.8857 48.3149 17.8857 47.9942C17.8857 47.6601 18.3733 47.605 18.6073 47.5869Z" fill="white"/>
<path fill-rule="evenodd" clip-rule="evenodd" d="M26.2506 51.1817C30.773 51.3766 35.2986 51.5102 39.8214 51.6907C40.1146 51.7025 40.7387 51.6159 40.8488 51.9757C40.9634 52.3497 40.4865 52.725 40.171 52.822C39.7612 52.948 39.2395 52.8774 38.8118 52.8894C38.2363 52.9057 37.6895 52.9006 37.116 52.8618C34.9305 52.7138 32.7487 52.5217 30.5627 52.3734C29.3252 52.2895 28.0886 52.19 26.853 52.0834C26.5235 52.0549 25.5449 52.1433 25.314 51.8747C25.1719 51.7093 25.3226 51.4536 25.4631 51.326C25.6945 51.116 25.9605 51.1636 26.2506 51.1817Z" fill="white"/>
<path fill-rule="evenodd" clip-rule="evenodd" d="M39.5944 56.1258C38.1248 56.2048 36.6388 56.0884 35.1941 55.8457C34.9973 55.8126 34.5424 55.8089 34.4166 55.6261C34.2245 55.347 34.5855 55.1035 34.8283 55.0788C35.5012 55.0104 36.3013 55.2452 36.9803 55.2866C37.6906 55.3299 38.4106 55.2543 39.1226 55.2486C39.5295 55.2454 39.9365 55.2425 40.3436 55.2412C40.5824 55.2405 40.9256 55.1801 41.1614 55.2343C41.8211 55.3858 40.9821 55.9413 40.6883 56.0053C40.5864 56.0276 39.5979 56.1741 39.5944 56.1258Z" fill="white"/>
<path fill-rule="evenodd" clip-rule="evenodd" d="M71.6657 20.8689C71.6755 20.6965 71.6307 20.2606 71.8441 20.1789C72.2602 20.0196 72.2327 21.0413 72.3949 21.1851C72.9902 21.7124 72.8298 19.6806 73.3971 20.3359C73.8579 20.8684 73.4877 22.1513 72.8393 22.3907C72.3617 22.5669 72.0367 22.2277 71.851 21.8349C71.8467 21.8258 71.5887 20.8648 71.6657 20.8689Z" fill="white"/>
<path fill-rule="evenodd" clip-rule="evenodd" d="M72.2047 18.5427C72.492 18.488 72.866 18.7864 72.6901 19.0754C72.5614 19.2868 71.6894 19.6144 71.4532 19.62C71.1633 19.6268 71.1879 19.3962 71.2805 19.1613C71.4253 18.7938 71.8119 18.5385 72.2047 18.5427Z" fill="white"/>
<path fill-rule="evenodd" clip-rule="evenodd" d="M19.8369 13.9132C19.9252 13.5455 20.0555 13.1099 20.4906 13.4643C20.7829 13.7024 20.9966 14.2896 21.0259 14.6569C21.061 15.0966 20.8196 15.3203 20.4294 15.0736C20.0335 14.8233 19.8824 14.3618 19.8369 13.9132Z" fill="white"/>
<path fill-rule="evenodd" clip-rule="evenodd" d="M10.4062 18.5365C10.2647 19.5196 9.39267 18.6046 9.43195 18.0049C9.45235 17.6928 9.63109 17.4369 9.97059 17.6241C10.2745 17.7919 10.3803 18.2328 10.4062 18.5365Z" fill="white"/>
<path fill-rule="evenodd" clip-rule="evenodd" d="M60.0527 75.9969C60.1176 75.7528 60.1318 75.2505 60.4141 75.1433C60.8318 74.985 61.013 75.6791 61.027 75.9585C61.0421 76.2614 60.9362 76.9048 60.5027 76.8514C60.1472 76.8076 60.1237 76.2621 60.0527 75.9969Z" fill="white"/>
<path fill-rule="evenodd" clip-rule="evenodd" d="M49.5381 76.3865C49.618 76.0877 49.6335 75.5479 49.9925 75.4574C50.3877 75.3578 50.5088 75.8966 50.5136 76.2014C50.5181 76.486 50.3588 77.2233 49.9559 77.1777C49.6457 77.1425 49.6044 76.6279 49.5381 76.3865Z" fill="white"/>
</svg>
